# xmcd
#
# Track frame offsets: 
#        150
#        4210
#        22290
#        26875
#        45272
#        49867
#        54432
#        72480
#        77745
#        98402
#
# Disc length: 1381 seconds
#
# Revision: 1
# Processed by: cddbd v1.5.2PL0 Copyright (c) Steve Scherf et al.
# Submitted via: ExactAudioCopy v0.95b3
#
DISCID=7c05630a
DTITLE=Various Artist - Summer Groove
DYEAR=1999
DGENRE=Jazz
TTITLE0=The Rippingtons/Taos
TTITLE1=Spyro Gyra/Sierra
TTITLE2=Michael Franks/Fountain Of Youth
TTITLE3=The Braxton Brothers/Just Believe
TTITLE4=Tom Scott and The L.A. Express/Lonely One
TTITLE5=Chaquico-Freeman/The Maiden And The Warrior
TTITLE6=Ricky Peterson/Soft Touch
TTITLE7=Peabo Bryson/On And On
TTITLE8=Earl Klugh/Peculiar Situation
TTITLE9=Double Scale/Moving Target
EXTD=
EXTT0=
EXTT1=
EXTT2=
EXTT3=
EXTT4=
EXTT5=
EXTT6=
EXTT7=
EXTT8=
EXTT9=
PLAYORDER=
